<svg width="150" height="60" viewBox="0 0 150 60" fill="none" xmlns="http://www.w3.org/2000/svg">
<path d="M5.39244 1.18611C5.39244 2.30239 6.35813 2.44192 15.7391 2.44192C25.1201 2.44192 26.0858 2.30239 26.0858 1.18611C26.0858 0.139596 25.1201 6.10352e-05 15.7391 6.10352e-05C6.35813 6.10352e-05 5.39244 0.139596 5.39244 1.18611Z" fill="#321AD0"/>
<path d="M15.0497 17.1628C12.9803 19.3256 10.5661 21.3488 9.66938 21.6977C7.738 22.4651 7.04822 24.1395 8.15187 25.4651C9.32449 26.8604 11.5318 26.7907 12.0836 25.2558C12.6354 23.7209 19.2573 16.7442 20.223 16.7442C20.7058 16.7442 21.7405 15.9767 22.6372 15L24.2237 13.2558H21.5336C19.1194 13.2558 18.3606 13.7442 15.0497 17.1628Z" fill="#321AD0"/>
<path d="M23.1203 15.9071L20.5682 18.5582L27.259 25.1861L29.8112 22.2559L32.4324 19.3954L29.4663 16.3257C27.8108 14.6512 26.2933 13.2559 26.0864 13.2559C25.8795 13.2559 24.4999 14.4419 23.1203 15.9071ZM29.0525 18.0001C30.2941 19.3257 30.2941 19.4652 28.7765 20.8605C26.7762 22.6745 26.6382 22.6745 24.7758 20.6512C23.1893 18.9768 23.1893 18.9071 24.4309 17.2326C25.8105 15.3489 26.8452 15.5582 29.0525 18.0001Z" fill="#321AD0"/>
<path d="M10.083 29.1628C1.87461 37.3953 1.2538 38.3023 0.495048 41.7209C0.081181 43.7441 -0.125752 45.6278 0.081181 45.8371C0.288115 45.9767 2.15052 45.8371 4.15087 45.4185C7.66874 44.6511 8.35852 44.093 16.6359 35.7209L25.396 26.7907L22.0851 23.5116L18.8432 20.2325L10.083 29.1628ZM21.8782 25.6744C22.7059 27.2093 22.8439 27 16.0151 33.6976L10.4968 39.0697L6.70305 35.093L12.5662 29.0232C17.7395 23.7209 18.6362 23.0232 19.8778 23.7209C20.6366 24.1395 21.5333 24.9767 21.8782 25.6744ZM6.97897 40.5348C6.22021 41.372 5.04759 41.8604 4.42679 41.7209C3.4611 41.5116 3.53007 41.2325 4.84065 39.279C6.22021 37.3255 6.5651 37.186 7.46181 38.093C8.35852 38.9302 8.28955 39.279 6.97897 40.5348ZM3.32314 43.2558C3.32314 43.6046 3.04723 43.9534 2.63336 43.9534C2.28847 43.9534 1.94358 43.6046 1.94358 43.2558C1.94358 42.8372 2.28847 42.5581 2.63336 42.5581C3.04723 42.5581 3.32314 42.8372 3.32314 43.2558Z" fill="#321AD0"/>
<path d="M5.39244 58.6046C5.39244 59.9302 5.87529 60 15.7391 60C25.603 60 26.0858 59.9302 26.0858 58.6046C26.0858 57.279 25.603 57.2093 15.7391 57.2093C5.87529 57.2093 5.39244 57.279 5.39244 58.6046Z" fill="#321AD0"/>
<path d="M37.3777 28.8578C37.4574 32.9345 37.8559 35.8591 38.3341 36.0363C38.8921 36.2136 39.2109 35.0615 39.2109 33.2004C39.2109 30.2758 39.45 30.0099 41.4426 30.0099C44.0729 30.0099 45.5872 28.5919 45.5872 26.0219C45.5872 23.2745 44.0729 22.0338 40.4862 22.0338H37.2183L37.3777 28.8578ZM43.1961 25.1356C44.4714 26.8195 43.5149 28.2375 41.1238 28.2375C39.6094 28.2375 39.2109 27.7943 39.2109 26.0219C39.2109 23.4518 41.5223 22.9201 43.1961 25.1356Z" fill="#1B1B1B"/>
<path d="M70.2959 24.338C70.2959 25.5787 69.977 26.3763 69.4988 26.0218C69.1003 25.756 68.7018 26.1104 68.7018 26.8194C68.7018 27.617 69.1003 28.2374 69.4988 28.2374C69.977 28.2374 70.2959 29.3895 70.2959 30.8075C70.2959 33.4662 72.0494 36.2135 73.8029 36.2135C75.4767 36.2135 77.7084 33.9093 77.1505 32.7572C76.6722 31.9596 76.194 31.9596 75.1578 33.0231C73.484 34.7069 72.687 34.0866 72.687 30.8075C72.687 29.035 73.1652 28.326 74.2811 28.0602C76.2737 27.7057 76.0346 25.9332 74.1217 26.1991C73.0855 26.3763 72.687 25.8446 72.687 24.2494C72.687 22.8314 72.2088 22.0338 71.4914 22.0338C70.7741 22.0338 70.2959 22.92 70.2959 24.338Z" fill="#1B1B1B"/>
<path d="M90.2211 29.1236C90.2211 33.289 90.54 36.2135 91.0182 36.2135C91.4964 36.2135 91.8152 34.7956 91.8152 33.1117C91.8152 30.2758 92.0544 30.0099 94.047 30.0099C96.6772 30.0099 98.1916 28.5919 98.1916 26.0218C98.1916 23.2745 96.6772 22.0338 93.2499 22.0338H90.2211V29.1236ZM96.199 26.0218C96.199 27.2626 95.5613 27.8829 94.047 28.0602C92.1341 28.326 91.8152 28.0602 91.8152 26.0218C91.8152 23.9835 92.1341 23.7176 94.047 23.9835C95.5613 24.1607 96.199 24.7811 96.199 26.0218Z" fill="#1B1B1B"/>
<path d="M123.139 23.9835C123.219 25.2242 122.9 25.9332 122.342 25.756C121.784 25.6673 121.306 26.1991 121.306 26.9081C121.306 27.6171 121.864 28.2374 122.581 28.2374C123.538 28.2374 123.777 28.7692 123.378 30.2758C122.821 32.7572 124.813 36.2135 126.806 36.2135C128.639 36.2135 130.392 33.9979 129.675 32.6686C129.277 31.9596 128.798 32.1369 128.161 33.2003C126.806 35.2387 125.291 33.9979 125.291 30.8075C125.291 28.6805 125.61 28.2374 127.284 28.2374C128.559 28.2374 129.277 27.7057 129.277 26.8194C129.277 25.756 128.798 25.4901 127.284 25.9332C125.53 26.4649 125.291 26.1991 125.291 24.2494C125.291 22.92 124.813 22.0338 124.096 22.0338C123.378 22.0338 122.98 22.7427 123.139 23.9835Z" fill="#1B1B1B"/>
<path d="M143.623 22.92C143.623 23.3631 144.181 23.8062 144.819 23.8062C145.775 23.8062 146.015 24.9584 146.015 28.6805C146.015 32.4027 145.775 33.5548 144.819 33.5548C144.181 33.5548 143.623 34.0866 143.623 34.7956C143.623 35.5932 144.66 35.9477 146.812 35.9477C148.964 35.9477 150 35.5932 150 34.7956C150 34.0866 149.442 33.5548 148.804 33.5548C147.848 33.5548 147.609 32.3141 147.609 27.7943C147.609 22.211 147.529 22.0338 145.616 22.0338C144.5 22.0338 143.623 22.3883 143.623 22.92Z" fill="#1B1B1B"/>
<path d="M48.9343 26.9967C46.4634 28.8578 46.5431 33.1117 49.1734 34.9728C53.2383 37.8974 57.7018 33.8207 56.028 28.7692C54.8324 25.4901 51.8833 24.6925 48.9343 26.9967ZM54.3542 30.8961C54.3542 33.4662 51.5645 34.7956 50.0501 33.0231C49.3328 32.3141 48.7749 31.3393 48.7749 30.8961C48.7749 30.453 49.3328 29.4782 50.0501 28.7692C51.5645 26.9967 54.3542 28.3261 54.3542 30.8961Z" fill="#1B1B1B"/>
<path d="M59.1371 27.3512C58.2603 28.3261 57.543 29.9213 57.543 30.8962C57.543 34.707 62.405 37.5429 65.4338 35.416C67.1076 34.1752 65.7526 32.4914 63.9194 33.5549C62.3253 34.5297 59.9341 33.9094 59.9341 32.58C59.9341 32.1369 61.5282 31.7824 63.5208 31.7824C66.1511 31.7824 67.1076 31.4279 67.1076 30.453C67.1076 28.5033 64.1585 25.5788 62.3253 25.5788C61.4485 25.5788 60.0138 26.3764 59.1371 27.3512ZM63.4411 27.883C65.5135 28.7692 64.8758 30.0099 62.3253 30.0099C59.9341 30.0099 59.0574 28.7692 60.9703 27.9716C61.4485 27.7057 62.0065 27.4398 62.0862 27.4398C62.1659 27.3512 62.7238 27.6171 63.4411 27.883Z" fill="#1B1B1B"/>
<path d="M101.38 27.3512C100.504 28.326 99.7862 29.9213 99.7862 30.8961C99.7862 31.871 100.504 33.4662 101.38 34.4411C102.257 35.4159 103.692 36.2135 104.569 36.2135C105.445 36.2135 106.88 35.4159 107.757 34.4411C108.633 33.4662 109.351 31.871 109.351 30.8961C109.351 29.9213 108.633 28.326 107.757 27.3512C106.88 26.3763 105.445 25.5787 104.569 25.5787C103.692 25.5787 102.257 26.3763 101.38 27.3512ZM106.003 28.4147C108.235 30.8961 105.764 35.7704 103.373 33.5548C102.735 32.9345 102.177 31.7824 102.177 30.9847C102.177 29.4781 103.612 27.3512 104.569 27.3512C104.808 27.3512 105.445 27.7943 106.003 28.4147Z" fill="#1B1B1B"/>
<path d="M110.945 26.9967C110.945 27.7057 111.344 28.0602 111.742 27.7943C112.22 27.4398 112.539 28.5033 112.539 30.3644C112.539 32.1369 112.22 33.5548 111.742 33.5548C111.344 33.5548 110.945 34.0866 110.945 34.7069C110.945 35.4159 111.981 35.859 113.735 35.9477C115.648 36.0363 116.524 35.6818 116.524 34.7956C116.524 34.0866 116.206 33.5548 115.727 33.5548C115.329 33.5548 114.93 32.58 114.93 31.3392C114.93 29.1237 117.003 27.2626 118.756 27.9715C119.234 28.2374 119.713 27.7943 119.713 26.9967C119.713 25.1356 117.401 25.2242 115.568 27.0853C114.133 28.5033 114.133 28.5033 114.611 27.0853C115.01 25.9332 114.611 25.5787 113.017 25.5787C111.662 25.5787 110.945 26.0218 110.945 26.9967Z" fill="#1B1B1B"/>
<path d="M133.501 26.1991C131.509 27.0853 132.545 28.3261 135.016 28.0602C136.45 27.8829 137.646 28.2374 137.805 28.8578C138.045 29.6554 137.327 30.0099 135.813 30.0099C134.538 30.0099 133.023 30.6303 132.465 31.3392C130.393 34.0866 133.741 37.4543 136.53 35.4159C137.487 34.7956 138.045 34.7956 138.045 35.3273C138.045 35.7704 138.602 36.2135 139.24 36.2135C140.914 36.2135 140.914 28.8578 139.16 26.9967C137.965 25.5787 135.494 25.2242 133.501 26.1991ZM138.045 32.1369C138.045 33.7321 135.574 34.7069 134.538 33.5548C133.9 32.8458 133.98 32.3141 134.856 31.7824C136.61 30.5416 138.045 30.7189 138.045 32.1369Z" fill="#1B1B1B"/>
</svg>
